<?xml version="1.0" standalone="no"?>
<!DOCTYPE svg PUBLIC "-//W3C//DTD SVG 20010904//EN"
 "http://www.w3.org/TR/2001/REC-SVG-20010904/DTD/svg10.dtd">
<svg version="1.0" xmlns="http://www.w3.org/2000/svg"
 width="372.000000pt" height="135.000000pt" viewBox="0 0 372.000000 135.000000"
 preserveAspectRatio="xMidYMid meet">

<g transform="translate(0.000000,135.000000) scale(0.100000,-0.100000)"
fill="#000000" stroke="none">
<path d="M362 931 c3 -244 4 -261 24 -287 42 -57 69 -69 162 -72 76 -2 92 0
126 20 72 43 76 59 76 345 l0 253 -65 0 -65 0 0 -234 c0 -200 -2 -237 -16
-250 -18 -19 -75 -21 -92 -4 -9 9 -12 78 -12 250 l0 238 -71 0 -70 0 3 -259z"/>
<path d="M910 885 l0 -305 65 0 65 0 0 89 0 89 79 3 c94 5 124 22 159 89 17
35 22 61 22 121 0 85 -12 132 -44 168 -37 42 -76 51 -216 51 l-130 0 0 -305z
m231 175 c16 -9 19 -22 19 -83 0 -44 -5 -78 -12 -85 -7 -7 -34 -12 -60 -12
l-48 0 0 95 0 95 41 0 c22 0 49 -5 60 -10z"/>
<path d="M1420 885 l0 -305 173 0 172 0 -3 60 -4 60 -99 0 -99 0 0 245 0 245
-70 0 -70 0 0 -305z"/>
<path d="M1946 903 c-43 -159 -81 -296 -84 -305 -4 -16 4 -18 66 -18 l70 0 12
50 12 50 68 0 68 0 12 -50 12 -50 70 0 c68 0 70 1 65 23 -4 12 -41 149 -84
305 l-77 282 -66 0 -65 0 -79 -287z m162 3 c18 -98 17 -106 -18 -106 -24 0
-30 4 -30 21 0 35 23 149 30 149 4 0 12 -29 18 -64z"/>
<path d="M2420 885 l0 -305 65 0 65 0 0 142 c0 90 3 139 10 132 5 -5 33 -68
63 -139 l54 -130 66 -3 67 -3 0 306 0 305 -65 0 -65 0 0 -142 c0 -86 -4 -138
-9 -132 -5 5 -34 68 -64 139 l-54 130 -67 3 -66 3 0 -306z"/>
<path d="M2970 885 l0 -306 144 3 c157 3 173 8 220 72 20 26 21 41 21 231 0
190 -1 205 -21 231 -47 63 -63 69 -220 72 l-144 4 0 -307z m231 175 c18 -10
19 -23 19 -173 0 -114 -4 -167 -12 -175 -7 -7 -34 -12 -60 -12 l-48 0 0 185 0
185 41 0 c22 0 49 -5 60 -10z"/>
<path d="M580 225 c0 -42 3 -55 15 -55 8 0 15 9 15 19 0 13 8 21 23 23 32 4
37 53 5 62 -53 14 -58 10 -58 -49z m58 17 c2 -7 -3 -12 -12 -12 -9 0 -16 7
-16 16 0 17 22 14 28 -4z"/>
<path d="M726 273 c-3 -3 -6 -28 -6 -55 l0 -48 35 0 c19 0 35 5 35 10 0 6 -9
10 -20 10 -17 0 -20 7 -20 39 0 38 -10 57 -24 44z"/>
<path d="M866 247 c-32 -78 -32 -87 4 -65 15 10 24 9 44 -2 14 -7 28 -11 30
-9 7 7 -43 109 -53 109 -6 0 -17 -15 -25 -33z m30 -34 c-10 -10 -19 5 -10 18
6 11 8 11 12 0 2 -7 1 -15 -2 -18z"/>
<path d="M999 246 c12 -18 21 -43 21 -55 0 -12 6 -21 15 -21 9 0 12 6 9 15 -3
8 4 31 16 50 26 41 18 62 -9 26 l-19 -24 -11 21 c-6 12 -19 22 -27 22 -13 0
-12 -6 5 -34z"/>
<path d="M1290 225 l0 -55 35 0 c19 0 35 5 35 10 0 6 -11 10 -25 10 -14 0 -25
5 -25 10 0 6 11 10 25 10 14 0 25 5 25 10 0 6 -11 10 -25 10 -14 0 -25 5 -25
10 0 6 11 10 25 10 16 0 25 6 25 15 0 10 -11 15 -35 15 l-35 0 0 -55z"/>
<path d="M1437 228 c-13 -29 -23 -55 -21 -57 2 -2 16 2 30 9 21 12 29 12 46 1
11 -7 22 -10 25 -7 8 8 -31 99 -45 104 -6 2 -22 -20 -35 -50z m43 -3 c0 -8 -4
-15 -10 -15 -5 0 -10 7 -10 15 0 8 5 15 10 15 6 0 10 -7 10 -15z"/>
<path d="M1580 225 c0 -30 5 -55 10 -55 6 0 10 9 10 20 0 11 4 20 9 20 5 0 13
-9 16 -20 3 -11 13 -20 21 -20 17 0 17 5 4 31 -7 13 -7 19 0 19 5 0 10 11 10
24 0 16 -7 26 -22 30 -53 14 -58 10 -58 -49z m58 17 c2 -7 -6 -12 -17 -12 -21
0 -27 11 -14 24 9 9 26 2 31 -12z"/>
<path d="M1730 225 c0 -59 17 -76 22 -22 l3 32 18 -32 c11 -21 25 -33 38 -33
18 0 20 5 17 52 -4 62 -28 81 -28 22 l0 -39 -25 38 c-14 20 -30 37 -35 37 -6
0 -10 -25 -10 -55z"/>
<path d="M2067 262 c-38 -42 1 -114 53 -97 28 9 25 25 -4 25 -28 0 -49 22 -40
43 6 18 32 30 45 21 5 -3 14 -2 20 2 8 4 7 9 -2 15 -23 14 -55 10 -72 -9z"/>
<path d="M2216 264 c-25 -24 -20 -71 9 -90 29 -19 60 -11 81 20 36 56 -43 117
-90 70z m67 -26 c15 -23 1 -48 -28 -48 -14 0 -25 2 -25 4 0 2 -3 11 -6 19 -6
16 23 50 39 44 6 -2 15 -10 20 -19z"/>
<path d="M2380 225 c0 -59 17 -76 22 -22 l3 32 18 -32 c11 -21 25 -33 38 -33
18 0 20 5 17 52 -4 62 -28 81 -28 22 l0 -39 -25 38 c-14 20 -30 37 -35 37 -6
0 -10 -25 -10 -55z"/>
<path d="M2540 225 c0 -44 3 -55 16 -55 12 0 15 7 12 30 -6 38 2 38 24 0 28
-50 48 -39 48 25 0 62 -17 75 -22 18 l-3 -38 -23 38 c-35 55 -52 49 -52 -18z"/>
<path d="M2710 225 l0 -55 35 0 c19 0 35 5 35 10 0 6 -11 10 -25 10 -14 0 -25
5 -25 10 0 6 11 10 25 10 14 0 25 5 25 10 0 6 -11 10 -25 10 -14 0 -25 5 -25
10 0 6 11 10 25 10 16 0 25 6 25 15 0 10 -11 15 -35 15 l-35 0 0 -55z"/>
<path d="M2862 264 c-48 -33 -8 -117 48 -99 29 9 25 23 -7 27 -21 2 -29 9 -31
27 -4 26 15 44 36 36 20 -7 37 6 21 16 -21 13 -42 11 -67 -7z"/>
<path d="M2987 273 c-12 -11 -8 -23 8 -23 11 0 15 -11 15 -40 0 -29 4 -40 15
-40 11 0 15 11 15 40 0 29 4 40 15 40 8 0 15 7 15 15 0 11 -11 15 -38 15 -21
0 -42 -3 -45 -7z"/>
<path d="M1122 179 c2 -6 8 -10 13 -10 5 0 11 4 13 10 2 6 -4 11 -13 11 -9 0
-15 -5 -13 -11z"/>
<path d="M1892 179 c2 -6 8 -10 13 -10 5 0 11 4 13 10 2 6 -4 11 -13 11 -9 0
-15 -5 -13 -11z"/>
<path d="M3112 179 c2 -6 8 -10 13 -10 5 0 11 4 13 10 2 6 -4 11 -13 11 -9 0
-15 -5 -13 -11z"/>
</g>
</svg>
